# xmcd
#
# Track frame offsets: 
#        150
#        14107
#        25722
#        37535
#        46792
#        57067
#        67130
#        76257
#        92215
#        102555
#        115605
#        136502
#        148970
#        164980
#        176370
#        186782
#        199395
#        218065
#        232982
#        244167
#        255267
#        266930
#        279015
#
# Disc length: 3873 seconds
#
# Revision: 3
# Processed by: cddbd v1.5.2PL0 Copyright (c) Steve Scherf et al.
# Submitted via: ExactAudioCopy v0.95b3
#
DISCID=400f1f17
DTITLE=Bill Monroe - The Music of Bill Monroe [disc 4: 1970-1994]
DYEAR=1994
DGENRE=Bluegrass
TTITLE0=Kentucky Waltz [1970]
TTITLE1=Get Up John [1970]
TTITLE2=Lonesome Moonlight Waltz [1970]
TTITLE3=Rocky Road Blues [1971]
TTITLE4=Jenny Lynn [1971]
TTITLE5=My Old Kentucky and You [1972]
TTITLE6=You Won't Be Satisfied That Way [1973]
TTITLE7=Jerusalem Ridge [1976]
TTITLE8=Ashland Breakdown [1976]
TTITLE9=Come Hither to Go Yonder [1981]
TTITLE10=My Last Days on Earth [1981]
TTITLE11=My Sweet Blue-Eyed Darlin' [1982]
TTITLE12=Travelin' This Lonesome Road [1985]
TTITLE13=The Old Brown County Barn [1985]
TTITLE14=Stay Away from Me [1986]
TTITLE15=The Long Bow [1986]
TTITLE16=The Old Cross Roads [1986]
TTITLE17=Southern Flavor [1988]
TTITLE18=Take Courage Un' Tomorrow [1988]
TTITLE19=Pike County Breakdown [1989]
TTITLE20=I'm Working on a Building [1989]
TTITLE21=You're Drifting Away [1990]
TTITLE22=Boston Boy [1994]
EXTD=4CD box set subtitle: From 1936 to 1994\nWilliam Smith "Bill" Mon
EXTD=roe (1911-09-13/1996-09-09): mandolin, vocals\n4CD: MCA MCAC/D4-1
EXTD=1048 (1994-07-19), UPC 008811104825.\ninfo: <http://www.ibiblio.o
EXTD=rg/hillwilliam/BGdiscography/search/viewrelease.php?rid=8100>
EXTT0=
EXTT1=
EXTT2=
EXTT3=
EXTT4=
EXTT5=
EXTT6=
EXTT7=
EXTT8=
EXTT9=
EXTT10=
EXTT11=
EXTT12=
EXTT13=
EXTT14=
EXTT15=
EXTT16=
EXTT17=
EXTT18=
EXTT19=
EXTT20=
EXTT21=
EXTT22=
PLAYORDER=
